<svg xmlns="http://www.w3.org/2000/svg" viewBox="0 0 512 512" role="img" aria-label="Woolly bugger fly pattern icon">
  <defs>
    <linearGradient id="bg" x1="76" y1="44" x2="430" y2="474" gradientUnits="userSpaceOnUse">
      <stop stop-color="#064e3b"/>
      <stop offset=".55" stop-color="#042f2e"/>
      <stop offset="1" stop-color="#020617"/>
    </linearGradient>
    <linearGradient id="body" x1="166" y1="218" x2="346" y2="304" gradientUnits="userSpaceOnUse">
      <stop stop-color="#8b5a2b"/>
      <stop offset=".5" stop-color="#3f2a16"/>
      <stop offset="1" stop-color="#17130c"/>
    </linearGradient>
    <linearGradient id="bead" x1="338" y1="199" x2="394" y2="270" gradientUnits="userSpaceOnUse">
      <stop stop-color="#fde68a"/>
      <stop offset=".45" stop-color="#b7791f"/>
      <stop offset="1" stop-color="#7c2d12"/>
    </linearGradient>
  </defs>

  <rect width="512" height="512" rx="112" fill="url(#bg)"/>
  <path d="M111 329c83 62 194 61 276-4" fill="none" stroke="#5eead4" stroke-width="28" stroke-linecap="round" opacity=".18"/>

  <path d="M356 244c66 15 93 52 78 94-9 25-33 39-60 31-22-7-35-24-35-45" fill="none" stroke="#d1fae5" stroke-width="22" stroke-linecap="round"/>
  <path d="M354 245c61 13 83 45 70 78-7 18-24 29-43 24" fill="none" stroke="#0f172a" stroke-width="9" stroke-linecap="round" opacity=".5"/>

  <path d="M113 245c-33-28-51-62-55-101 37 18 69 46 94 83" fill="#111827"/>
  <path d="M119 258c-38-12-72-33-101-63 42-3 80 8 115 34" fill="#1f2937"/>
  <path d="M119 272c-37 10-73 8-108-5 34-25 72-36 113-31" fill="#111827"/>
  <path d="M124 290c-29 24-62 38-99 43 22-34 53-59 94-75" fill="#1f2937"/>

  <ellipse cx="244" cy="256" rx="124" ry="52" fill="url(#body)" transform="rotate(-6 244 256)"/>
  <path d="M143 256c42-48 115-67 206-52" fill="none" stroke="#a7f3d0" stroke-width="10" stroke-linecap="round" opacity=".75"/>
  <path d="M151 283c47 29 118 34 197 10" fill="none" stroke="#2dd4bf" stroke-width="9" stroke-linecap="round" opacity=".55"/>

  <path d="M170 212c22 26 29 61 20 105" fill="none" stroke="#0f172a" stroke-width="11" stroke-linecap="round" opacity=".9"/>
  <path d="M207 199c21 34 25 76 12 124" fill="none" stroke="#0f172a" stroke-width="10" stroke-linecap="round" opacity=".85"/>
  <path d="M246 197c18 33 20 76 4 127" fill="none" stroke="#0f172a" stroke-width="10" stroke-linecap="round" opacity=".85"/>
  <path d="M285 204c13 31 9 70-14 116" fill="none" stroke="#0f172a" stroke-width="10" stroke-linecap="round" opacity=".8"/>
  <path d="M319 218c8 27 0 58-25 95" fill="none" stroke="#0f172a" stroke-width="9" stroke-linecap="round" opacity=".75"/>

  <path d="M159 238c31 14 62 20 94 18 40-2 74-15 101-40" fill="none" stroke="#f59e0b" stroke-width="8" stroke-linecap="round" opacity=".7"/>
  <path d="M158 276c33 15 67 19 104 12 34-7 63-23 88-49" fill="none" stroke="#78350f" stroke-width="8" stroke-linecap="round" opacity=".8"/>

  <circle cx="361" cy="238" r="36" fill="url(#bead)"/>
  <circle cx="348" cy="224" r="9" fill="#fef3c7" opacity=".9"/>
  <path d="M383 238c27 8 46 20 58 36" fill="none" stroke="#5eead4" stroke-width="12" stroke-linecap="round"/>
  <path d="M399 236c28-8 55-7 82 2" fill="none" stroke="#a7f3d0" stroke-width="8" stroke-linecap="round" opacity=".9"/>
</svg>
